<svg width="21" height="20" viewBox="0 0 21 20" fill="none" xmlns="http://www.w3.org/2000/svg">
<g id="headphones">
<path id="Icons" d="M3 15V10C3 8.01088 3.79018 6.10322 5.1967 4.6967C6.60322 3.29018 8.51088 2.5 10.5 2.5C12.4891 2.5 14.3968 3.29018 15.8033 4.6967C17.2098 6.10322 18 8.01088 18 10V15M18 15.8333C18 16.2754 17.8244 16.6993 17.5118 17.0118C17.1993 17.3244 16.7754 17.5 16.3333 17.5H15.5C15.058 17.5 14.634 17.3244 14.3215 17.0118C14.0089 16.6993 13.8333 16.2754 13.8333 15.8333V13.3333C13.8333 12.8913 14.0089 12.4674 14.3215 12.1548C14.634 11.8423 15.058 11.6667 15.5 11.6667H18V15.8333ZM3 15.8333C3 16.2754 3.17559 16.6993 3.48816 17.0118C3.80072 17.3244 4.22464 17.5 4.66667 17.5H5.5C5.94203 17.5 6.36595 17.3244 6.67851 17.0118C6.99107 16.6993 7.16667 16.2754 7.16667 15.8333V13.3333C7.16667 12.8913 6.99107 12.4674 6.67851 12.1548C6.36595 11.8423 5.94203 11.6667 5.5 11.6667H3V15.8333Z" stroke="#5A6475" stroke-width="2" stroke-linecap="round" stroke-linejoin="round"/>
</g>
</svg>
