<?xml version="1.0" encoding="utf-8"?>
<!-- Generator: Adobe Illustrator 19.2.1, SVG Export Plug-In . SVG Version: 6.00 Build 0)  -->
<svg version="1.1" id="layer" xmlns="http://www.w3.org/2000/svg" xmlns:xlink="http://www.w3.org/1999/xlink" x="0px" y="0px"
	 viewBox="0 0 652 652" style="enable-background:new 0 0 652 652;" xml:space="preserve">
<style type="text/css">
	.st0{fill:#5333ED;}
</style>
<g>
	<g>
		<path class="st0" d="M276.3,281.1c-4.5-4.5-9.8-8.1-15.7-10.6c-6-2.6-12.5-3.9-19-3.9c-6.2-0.1-12.3,1-18,3.2
			c-5.7,2.2-10.9,5.5-15.4,9.6l-7.9-9c-0.9-1-2.1-1.5-3.4-1.5c-2.5,0-4.5,2.1-4.5,4.5V375c0,2.2,1.7,4.2,4,4.5h19.2
			c2.5,0,4.5-2.1,4.5-4.5v-58.5c0-2.8,0.6-5.6,1.7-8.2c1.1-2.5,2.6-4.8,4.5-6.7c4-4,9.5-6.3,15.2-6.2c2.8,0,5.6,0.6,8.1,1.7
			c5.1,2.2,9.1,6.3,11.2,11.4c1,2.5,1.5,5.2,1.5,7.9v58.5c0,2.5,2,4.5,4.5,4.5h19.2c2.5,0,4.5-2.1,4.5-4.5v-58.5
			c0-6.6-1.3-13.2-3.9-19.3C284.1,291,280.6,285.7,276.3,281.1L276.3,281.1z M493.6,268.9h-75.4c-2.5,0-4.5,2.1-4.5,4.5v19.1
			c0,2.5,2,4.5,4.5,4.5h5c2.5,0,4.5,2,4.5,4.5V330c0,6.6,1.3,13.2,3.9,19.2c5.1,11.8,14.5,21.3,26.3,26.4c6.1,2.6,12.6,3.9,19.2,3.9
			H494c2.5,0,4.5-2.1,4.5-4.5v-19.1c0-2.5-2-4.5-4.5-4.5h-16.8c-2.9,0-5.7-0.6-8.3-1.7c-2.5-1.1-4.8-2.7-6.8-4.6
			c-2-2-3.5-4.3-4.5-6.8c-1.1-2.6-1.7-5.5-1.6-8.4v-28.3c0-2.3,1.7-4.2,4-4.5h33.7c2.5,0,4.5-2.1,4.5-4.5v-19
			C498,271,496,269,493.6,268.9L493.6,268.9z M616.3,266.9c-1.3,0-2.6,0.6-3.4,1.6l-6.7,8c-1.6,2-4.5,2.2-6.4,0.6
			c-1.6-1.4-3.3-2.7-5.1-4c-3-2.1-6.2-4-9.5-5.6c-3.3-1.6-6.7-2.9-10.2-3.7c-3.5-0.9-7.1-1.3-10.7-1.3c-7.6,0-15,1.4-22,4.3
			c-6.8,2.8-12.8,6.9-18,12.1c-5.2,5.3-9.3,11.7-12.1,18.6c-3,7.5-4.4,15.5-4.4,23.6c-0.1,8.5,1.3,16.8,4.4,24.7
			c2.7,6.9,6.9,13.2,12.2,18.4c5.1,5,11.2,8.9,18,11.4c7,2.7,14.4,4,22,4c3.5,0,7.1-0.5,10.5-1.4c3.5-0.9,6.9-2.1,10.2-3.7
			c3.3-1.6,6.4-3.4,9.4-5.5c1.7-1.2,3.3-2.4,4.9-3.7c2-1.6,5-1.2,6.4,0.9l6.7,9.3c2.5,3.6,8.1,1.8,8.1-2.6V271.4
			C620.8,268.9,618.8,266.9,616.3,266.9L616.3,266.9z M590.1,332.3c-1.4,3.5-3.4,6.7-6,9.6c-2.5,2.8-5.6,5.1-8.9,6.7
			c-3.4,1.6-7.1,2.5-10.9,2.5c-3.7,0-7.4-0.7-10.9-2c-3.4-1.3-6.4-3.2-8.9-5.8c-2.6-2.7-4.6-5.9-5.9-9.5c-1.5-4.2-2.3-8.5-2.1-13
			c-0.1-4.4,0.7-8.8,2.2-12.9c1.3-3.4,3.4-6.5,5.9-9.1c2.5-2.6,5.5-4.5,8.9-5.8c3.5-1.3,7.2-2,10.9-1.9c3.8,0,7.5,0.8,10.9,2.5
			c3.3,1.6,6.3,3.7,8.8,6.4c2.6,2.8,4.6,6.1,6,9.6C593.1,317,593.1,325,590.1,332.3L590.1,332.3z M44.6,268.7H25.3
			c-2.5,0-4.5,2-4.5,4.5V375c0,2.5,2,4.5,4.5,4.5h19.3c2.5,0,4.5-2.1,4.5-4.5V273.2C49.1,270.8,47.1,268.7,44.6,268.7L44.6,268.7z
			 M123.8,276c2.3-2.9,0.3-7.2-3.4-7.3h-22c-1.3,0-2.6,0.6-3.4,1.6L51.6,321c-1.5,1.7-1.5,4.2,0,5.9l43.9,50.8
			c0.9,1,2.1,1.6,3.4,1.6h22c3.7-0.1,5.7-4.4,3.5-7.3l-39.3-44.8c-1.5-1.7-1.5-4.2,0-5.9L123.8,276z M166.1,268.7
			c-1.3,0-2.6,0.5-3.4,1.5l-0.9,1l-18.3,20.9c-0.7,0.8-1.1,1.9-1.1,2.9V375c0,2.5,2,4.5,4.5,4.5H166c2.5,0,4.5-2.1,4.5-4.5V273.2
			C170.4,270.8,168.5,268.8,166.1,268.7L166.1,268.7z M396.1,320.6c-3.2-3-7-5.3-11.1-6.9c-4.3-1.6-9-2.4-13.6-2.4h-29.3
			c-1.9,0-3.7-0.8-5-2.1c-1.2-1.4-1.8-3.2-1.8-5c0-4,3.3-7.3,7.3-7.3h52.6c2.5,0,4.5-2.1,4.5-4.5v-18.8c0-2.5-2-4.5-4.5-4.5h-53.2
			c-4.8-0.1-9.6,0.9-14,2.8c-8.3,3.6-14.8,10.3-18.3,18.6c-1.8,4.4-2.7,9-2.7,13.8c0,4.7,0.9,9.4,2.8,13.7
			c3.4,8.4,9.9,15.2,18.2,18.9c4.3,1.9,9,2.8,13.7,2.8H372c3.1-0.1,5.8,2.3,6.1,5.4c0.3,3.5-2.4,6.5-5.9,6.5h-60.7
			c-2.5,0-4.5,2-4.5,4.5V375c0,2.5,2,4.5,4.5,4.5h59.9c9.3,0,18.2-3.7,24.7-10.3c3.1-3.2,5.6-7,7.3-11.2c1.9-4.3,2.8-9,2.8-13.7
			c0-4.6-0.9-9.1-2.8-13.3C401.7,327.1,399.2,323.6,396.1,320.6L396.1,320.6z M396.1,320.6"/>
	</g>
</g>
</svg>
