<svg id="SvgjsSvg1013" width="288" height="288" xmlns="http://www.w3.org/2000/svg" version="1.1" xmlns:xlink="http://www.w3.org/1999/xlink" xmlns:svgjs="http://svgjs.com/svgjs"><defs id="SvgjsDefs1014"></defs><g id="SvgjsG1015"><svg xmlns="http://www.w3.org/2000/svg" fill="none" viewBox="0 0 1025 200" width="288" height="288"><path fill="#000000" d="M802.169 70.477h-24.274v85.319h24.274zm0-28.12h-24.274v18.865h24.274zm-529.406 0H247.39v113.439h77.478v-21.749h-52.105zm102.248 21.02c-27.007 0-48.385 20.843-48.385 47.109s21.378 47.163 48.385 47.163 48.564-20.843 48.564-47.122c0-26.28-21.392-47.15-48.564-47.15zm0 71.754c-13.593 0-23.739-10.325-23.739-24.714 0-14.39 10.146-24.632 23.739-24.632s23.739 10.504 23.739 24.632c0 14.128-10.146 24.714-23.739 24.714zm150.373 1.456c-4.353 0-8.156-2.54-8.156-10.325V90.028h23.149V70.476h-23.149v-24.59h-24.275v24.59h-31.881v-24.59h-24.275v24.59h-13.222v19.552h13.222v36.591c0 20.472 9.79 30.989 27.9 30.989a41.724 41.724 0 0 0 23.011-6.865l-6.865-17.932a22.276 22.276 0 0 1-11.602 3.804c-4.353 0-8.156-2.541-8.156-10.326v-36.26h31.882v36.59c0 20.472 9.775 30.989 27.899 30.989a41.77 41.77 0 0 0 23.012-6.865l-6.865-17.932a22.19 22.19 0 0 1-11.629 3.776zm153.475-32.485c-3.707-25.47-25.909-43.484-50.307-39.928a46.513 46.513 0 0 0-38.882 34.99 46.51 46.51 0 0 0-.771 18.379c4.298 29.589 29.739 43.291 55.909 39.474a61.049 61.049 0 0 0 31.923-14.704l-11.479-15.914a45 45 0 0 1-23.176 10.518c-11.835 1.716-22.916-2.747-27.584-14.664l65.081-9.474a78.516 78.516 0 0 0-.714-8.677zm-67.058 2.238c.686-11.63 8.567-20.472 18.961-21.969a21.968 21.968 0 0 1 24.481 15.612zm330.58-2.238c-3.707-25.47-25.922-43.484-50.307-39.928a46.505 46.505 0 0 0-39.653 53.369c4.298 29.589 29.726 43.291 55.909 39.474a61.002 61.002 0 0 0 31.909-14.704l-11.464-15.914a45.035 45.035 0 0 1-23.191 10.518c-11.835 1.716-22.915-2.747-27.583-14.664l65.094-9.474a82.6 82.6 0 0 0-.714-8.677zm-67.058 2.238c.687-11.63 8.554-20.472 18.962-21.969a21.887 21.887 0 0 1 24.426 15.612zm-33.295-63.983h-24.275v113.425h24.275zm150.62 56.719c-8.334-1.812-15.941-3.446-15.941-8.513 0-3.803 5.258-6.343 10.874-6.343a56.723 56.723 0 0 1 25.179 6.343l8.16-18.124a61.791 61.791 0 0 0-33.71-9.061c-17.025 0-35.149 9.789-35.149 28.27 0 17.396 14.678 23.341 32.623 28.078 7.785 2.183 15.586 3.446 15.586 8.883s-9.243 7.607-14.872 7.607a43.84 43.84 0 0 1-28.257-9.611l-8.704 18.686c5.08 4.71 17.574 12.358 36.961 12.358 16.862 0 39.502-7.428 39.502-29.726 0-18.522-16.79-25.195-32.252-28.847zm-414.733-28.6H553.64v85.32h24.275zm0-28.119H553.64v18.865h24.275zm111.283 113.439h25.318v-46.353h42.934V87.927h-42.934V64.065h52.161V42.357h-77.479z" class="color000 svgShape"></path><path fill="#00ddb3" d="M149.37 0H50.596C22.653 0 0 22.652 0 50.596v98.774c0 27.943 22.653 50.596 50.596 50.596h98.774c27.943 0 50.596-22.653 50.596-50.596V50.596C199.966 22.652 177.313 0 149.37 0z" class="color00ddb3 svgShape"></path><path fill="#ffffff" d="M151.979 44.787c-34.422 0-47.177 24.577-57.434 44.321l-6.7 12.632c-10.86 20.938-18.974 33.666-39.885 33.666a9.883 9.883 0 0 0-6.99 2.896 9.88 9.88 0 0 0-2.896 6.99 9.898 9.898 0 0 0 9.886 9.886c34.435 0 47.19-24.577 57.446-44.321l6.687-12.632c10.874-20.939 18.988-33.666 39.886-33.666a9.888 9.888 0 0 0 9.899-9.886 9.9 9.9 0 0 0-9.899-9.886z" class="colorfff svgShape"></path></svg></g></svg>