<svg width="35" height="33" viewBox="0 0 35 33" fill="none" xmlns="http://www.w3.org/2000/svg">
<g id="Group 12">
<path id="Star 1" d="M19.5454 0C19.5454 0 20.395 7.93046 23.7045 11.24C27.0141 14.5495 34.9445 15.3991 34.9445 15.3991C34.9445 15.3991 27.0141 16.2488 23.7045 19.5583C20.395 22.8678 19.5454 30.7983 19.5454 30.7983C19.5454 30.7983 18.6957 22.8678 15.3862 19.5583C12.0767 16.2488 4.14624 15.3991 4.14624 15.3991C4.14624 15.3991 12.0767 14.5495 15.3862 11.24C18.6957 7.93046 19.5454 0 19.5454 0Z" fill="url(#paint0_linear_1396_1565)"/>
<path id="Star 2" d="M7.1073 16.5834C7.1073 16.5834 7.49944 20.2436 9.02691 21.7711C10.5544 23.2986 14.2146 23.6907 14.2146 23.6907C14.2146 23.6907 10.5544 24.0829 9.02691 25.6103C7.49944 27.1378 7.1073 30.798 7.1073 30.798C7.1073 30.798 6.71515 27.1378 5.18768 25.6103C3.66021 24.0829 0 23.6907 0 23.6907C0 23.6907 3.66021 23.2986 5.18768 21.7711C6.71515 20.2436 7.1073 16.5834 7.1073 16.5834Z" fill="url(#paint1_linear_1396_1565)"/>
<path id="Star 3" d="M13.03 25.4683C13.03 25.4683 13.226 27.2984 13.9898 28.0621C14.7535 28.8258 16.5836 29.0219 16.5836 29.0219C16.5836 29.0219 14.7535 29.218 13.9898 29.9817C13.226 30.7455 13.03 32.5756 13.03 32.5756C13.03 32.5756 12.8339 30.7455 12.0702 29.9817C11.3064 29.218 9.47632 29.0219 9.47632 29.0219C9.47632 29.0219 11.3064 28.8258 12.0702 28.0621C12.8339 27.2984 13.03 25.4683 13.03 25.4683Z" fill="url(#paint2_linear_1396_1565)"/>
</g>
<defs>
<linearGradient id="paint0_linear_1396_1565" x1="19.5454" y1="0" x2="19.5454" y2="30.7983" gradientUnits="userSpaceOnUse">
<stop stop-color="#814BF4"/>
<stop offset="1" stop-color="#8E5CF7" stop-opacity="0"/>
</linearGradient>
<linearGradient id="paint1_linear_1396_1565" x1="7.1073" y1="16.5834" x2="7.1073" y2="30.798" gradientUnits="userSpaceOnUse">
<stop stop-color="#814BF4"/>
<stop offset="1" stop-color="#8E5CF7" stop-opacity="0"/>
</linearGradient>
<linearGradient id="paint2_linear_1396_1565" x1="13.03" y1="25.4683" x2="13.03" y2="32.5756" gradientUnits="userSpaceOnUse">
<stop stop-color="#814BF4"/>
<stop offset="1" stop-color="#8E5CF7" stop-opacity="0"/>
</linearGradient>
</defs>
</svg>
