<svg xmlns="http://www.w3.org/2000/svg" width="71" height="16" viewBox="0 0 71 16" fill="none">
  <g clip-path="url(#clip0_1396_1005)">
    <path d="M39.492 0.239333H43.824L41.644 15.7873H37.312L39.492 0.239333ZM34.03 0.239333L31.1067 9.196L29.8314 0.239333H26.8014L22.9734 9.16933L22.4954 0.24H18.296L19.758 15.788H23.24L27.5454 5.95467L29.06 15.788H32.4887L38.15 0.239333H34.03ZM70.402 9.276H60.116C60.1694 11.296 61.3787 12.6247 63.1594 12.6247C64.502 12.6247 65.5647 11.9067 66.3887 10.538L69.8607 12.1167C68.6674 14.468 66.1527 16 63.0534 16C58.8274 16 56.0234 13.156 56.0234 8.58467C56.0234 3.56133 59.3187 0 63.97 0C68.0634 0 70.6414 2.764 70.6414 7.07C70.6414 7.78733 70.5614 8.50467 70.402 9.276ZM66.5487 6.29867C66.5487 4.492 65.538 3.34867 63.9174 3.34867C62.2427 3.34867 60.8607 4.54467 60.488 6.29867H66.5487ZM4.75471 4.92467L0.333374 10.0927H8.22937L9.11604 7.656H5.73337L7.80004 5.26533L7.80671 5.202L6.46271 2.888H12.5107L7.82271 15.788H11.0307L16.692 0.238667H2.06671L4.75537 4.924L4.75471 4.92467ZM50.8667 3.34867C52.3947 3.34867 53.7334 4.17067 54.9034 5.57933L55.5174 1.196C54.4287 0.458667 52.9534 0 51 0C47.12 0 44.94 2.27267 44.94 5.156C44.94 7.156 46.0567 8.37867 47.8907 9.16933L48.7674 9.568C50.402 10.266 50.8407 10.6113 50.8407 11.3487C50.8407 12.1127 50.1034 12.598 48.9807 12.598C47.126 12.6047 45.6247 11.6547 44.4954 10.0333L43.8687 14.4993C45.156 15.48 46.8054 16 48.98 16C52.668 16 54.9334 13.8733 54.9334 10.9233C54.9334 8.91667 54.0434 7.628 51.7974 6.618L50.8407 6.166C49.5114 5.57467 49.06 5.24933 49.06 4.598C49.06 3.894 49.678 3.34867 50.8667 3.34867Z" fill="#163300"/>
  </g>
  <defs>
    <clipPath id="clip0_1396_1005">
      <rect width="70.6667" height="16" fill="white" transform="translate(0.333374)"/>
    </clipPath>
  </defs>
</svg>